<svg xmlns="http://www.w3.org/2000/svg" viewBox="0 0 512 512"><path d="M284.069 73.93A10.072 10.072 0 00277 71c-2.641 0-5.21 1.07-7.07 2.93-1.86 1.86-2.93 4.44-2.93 7.07s1.069 5.21 2.93 7.07c1.861 1.86 4.44 2.93 7.07 2.93s5.21-1.07 7.069-2.93C285.93 86.21 287 83.63 287 81s-1.07-5.21-2.931-7.07z"/><path d="M502 225.127c-5.522 0-10 4.477-10 10V295h-34v-85.013c0-2.652-1.054-5.196-2.929-7.071l-30.986-30.987a10.003 10.003 0 00-7.071-2.929H326v-30h55c18.748 0 34-15.252 34-34s-15.252-34-34-34h-56c-5.522 0-10 4.477-10 10s4.478 10 10 10h56c7.72 0 14 6.28 14 14s-6.28 14-14 14H171c-7.72 0-14-6.28-14-14s6.28-14 14-14h60.5c5.522 0 10-4.477 10-10s-4.478-10-10-10H171c-18.748 0-34 15.252-34 34s15.252 34 34 34h55v30h-45.333a10.003 10.003 0 00-7.071 2.929l-29.404 29.405H104c-5.522 0-10 4.477-10 10V255H74c-5.522 0-10 4.477-10 10v30H52v-71.467c0-14.336-11.663-26-26-26s-26 11.664-26 26V387.66c0 14.336 11.663 26 26 26s26-11.664 26-26V315h12v30c0 5.523 4.478 10 10 10h20v21.789c0 2.652 1.054 5.196 2.929 7.071l54.212 54.211a10.003 10.003 0 007.071 2.929H354.5c2.652 0 5.195-1.054 7.071-2.929l18.571-18.571H448c5.522 0 10-4.477 10-10V315h34v60.127c0 5.523 4.478 10 10 10s10-4.477 10-10v-140c0-5.523-4.478-10-10-10zM32 304.749c-.002.084-.002.418 0 .503v82.408c0 3.308-2.691 6-6 6s-6-2.691-6-6V223.533c0-3.309 2.691-6 6-6s6 2.691 6 6v81.216zM94 335H84v-60h10v60zm152-196h60v30h-60v-30zm192 260.5h-62a10.003 10.003 0 00-7.071 2.929L350.357 421H162.354L114 372.646V221.333h34.333c2.652 0 5.195-1.054 7.071-2.929L184.81 189h228.062L438 214.129V399.5z"/><path d="M335.069 379.93C333.21 378.07 330.63 377 328 377s-5.21 1.07-7.07 2.93c-1.86 1.86-2.93 4.44-2.93 7.07s1.069 5.21 2.93 7.07c1.861 1.86 4.44 2.93 7.07 2.93s5.21-1.07 7.069-2.93c1.86-1.86 2.931-4.44 2.931-7.07s-1.07-5.21-2.931-7.07zM287.333 377h-92.392l-42.283-42.283c-3.906-3.905-10.236-3.905-14.143 0-3.905 3.905-3.905 10.237 0 14.142l45.212 45.211a10.003 10.003 0 007.071 2.929h96.534c5.522 0 10-4.477 10-10S292.855 377 287.333 377z"/></svg>