<svg xmlns="http://www.w3.org/2000/svg" width="512" height="512"><path d="M488.705 27.326C472.239 9.705 449.893 0 425.784 0H86.205C36.962 0-3.072 42.923.261 92.034l15.028 221.474c.654 9.647 15.62 8.636 14.966-1.016L15.227 91.019C12.473 50.449 45.541 15 86.205 15h339.579c40.664 0 73.731 35.449 70.978 76.019l-23.044 339.61C471.193 467.846 440.015 497 402.74 497H109.25c-37.276 0-68.453-29.154-70.979-66.372l-5.234-77.136c-.656-9.649-15.62-8.635-14.966 1.016l5.234 77.136C26.363 476.704 64.114 512 109.249 512h293.49c45.136 0 82.887-35.296 85.944-80.356l23.044-339.61c1.636-24.091-6.541-47.071-23.022-64.708z"/><path d="M331.494 174.5a7.5 7.5 0 007.5 7.5h30a7.5 7.5 0 007.5-7.5c0-66.444-54.056-120.5-120.5-120.5s-120.5 54.056-120.5 120.5a7.5 7.5 0 007.5 7.5h155c9.673 0 9.673-15 0-15h-36.327l-32.632-58.169c-4.732-8.436-17.814-1.097-13.082 7.339L244.468 167h-93.71c1.624-23.02 10.668-44.024 24.747-60.631l10.294 10.293c6.838 6.841 17.447-3.767 10.606-10.606L185.99 95.64a105.593 105.593 0 0134.473-20.477l3.744 13.971c2.495 9.311 16.994 5.466 14.489-3.883l-3.786-14.128a105.993 105.993 0 0140.017-.414l-3.695 13.788c-2.504 9.349 11.994 13.194 14.489 3.883l3.734-13.934a105.476 105.476 0 0134.742 19.629l-9.921 9.921c-6.84 6.839 3.767 17.446 10.606 10.606l10.036-10.036c14.972 16.878 24.628 38.573 26.312 62.434h-22.236a7.5 7.5 0 00-7.5 7.5zM75.494 48c-14.612 0-26.5 11.888-26.5 26.5s11.888 26.5 26.5 26.5 26.5-11.888 26.5-26.5S90.107 48 75.494 48zm0 38c-6.341 0-11.5-5.159-11.5-11.5S69.153 63 75.494 63s11.5 5.159 11.5 11.5S81.836 86 75.494 86zm361 15c14.612 0 26.5-11.888 26.5-26.5S451.107 48 436.494 48s-26.5 11.888-26.5 26.5 11.888 26.5 26.5 26.5zm0-38c6.341 0 11.5 5.159 11.5 11.5s-5.159 11.5-11.5 11.5-11.5-5.159-11.5-11.5 5.159-11.5 11.5-11.5zm-364.5 370.5c0 14.612 11.888 26.5 26.5 26.5s26.5-11.888 26.5-26.5-11.888-26.5-26.5-26.5-26.5 11.888-26.5 26.5zm26.5-11.5c6.341 0 11.5 5.159 11.5 11.5s-5.159 11.5-11.5 11.5-11.5-5.159-11.5-11.5 5.159-11.5 11.5-11.5zm288.5 11.5c0 14.612 11.888 26.5 26.5 26.5s26.5-11.888 26.5-26.5-11.888-26.5-26.5-26.5-26.5 11.888-26.5 26.5zm26.5-11.5c6.341 0 11.5 5.159 11.5 11.5s-5.159 11.5-11.5 11.5-11.5-5.159-11.5-11.5 5.159-11.5 11.5-11.5z"/></svg>