<svg height="512" viewBox="0 0 507 507" width="512" xmlns="http://www.w3.org/2000/svg"><path d="M30.01 0v507h446.98V0zm416.98 477H60.01V30h386.98z"/><path d="M417.335 58.021H89.665v390.812h327.671V58.021zm-297.67 30h267.671v90.271H119.665zm0 120.271h267.671v90.271H119.665zm267.67 210.541h-267.67v-90.271h267.671v90.271z"/><path d="M345.315 118.156h-.277c-8.284 0-15 6.716-15 15s6.716 15 15 15h.277c8.284 0 15-6.716 15-15s-6.716-15-15-15zm-51.064 0h-.278c-8.284 0-15 6.716-15 15s6.716 15 15 15h.278c8.284 0 15-6.716 15-15s-6.715-15-15-15zm-51.063 0h-.278c-8.284 0-15 6.716-15 15s6.716 15 15 15h.278c8.285 0 15-6.716 15-15s-6.716-15-15-15zM345.315 238.5h-.277c-8.284 0-15 6.716-15 15s6.716 15 15 15h.277c8.284 0 15-6.716 15-15s-6.716-15-15-15zm-51.064 0h-.278c-8.284 0-15 6.716-15 15s6.716 15 15 15h.278c8.284 0 15-6.716 15-15s-6.715-15-15-15zm-51.063 0h-.278c-8.284 0-15 6.716-15 15s6.716 15 15 15h.278c8.285 0 15-6.716 15-15s-6.716-15-15-15zm101.85 150.344h.277c8.284 0 15-6.716 15-15s-6.716-15-15-15h-.277c-8.284 0-15 6.716-15 15s6.715 15 15 15zm-51.065 0h.278c8.284 0 15-6.716 15-15s-6.716-15-15-15h-.278c-8.284 0-15 6.716-15 15s6.716 15 15 15zm-51.063 0h.278c8.285 0 15-6.716 15-15s-6.715-15-15-15h-.278c-8.284 0-15 6.716-15 15s6.715 15 15 15zm-93-270.688h43.5v30h-43.5zm0 120.344h43.5v30h-43.5zm0 120.344h43.5v30h-43.5z"/></svg>