<svg xmlns="http://www.w3.org/2000/svg" viewBox="0 0 512 512"><path d="M496.484 143.258c8.556 0 15.516-6.96 15.516-15.516V111.71c0-8.556-6.96-15.517-15.516-15.517h-16.548v-32.58c0-8.556-6.96-15.516-15.516-15.516H47.581c-8.556 0-15.516 6.96-15.516 15.516v32.581H15.516C6.96 96.193 0 103.154 0 111.71v16.032c0 8.556 6.96 15.516 15.516 15.516h.516v273.581h-.516C6.96 416.839 0 423.799 0 432.354v16.033c0 8.556 6.96 15.516 15.516 15.516h480.968c8.556 0 15.516-6.96 15.516-15.516v-16.033c0-8.556-6.96-15.516-15.516-15.516h-.516v-273.58h.516zM464.42 63.097c.284 0 .516.231.516.516v32.581h-18.211l-5.516-33.097h23.211zm-49.76 0h11.341l5.516 33.097h-22.374l5.517-33.097zm-38.934 33.096V63.097h23.728l-5.516 33.097-18.212-.001zm-224.452 0V63.097h209.451v33.097l-209.451-.001zm-14.999-33.097v33.097h-18.212l-5.516-33.097h23.728zm-50.277.001H97.34l5.516 33.097H80.482l5.516-33.097zm-38.934.516c0-.285.231-.516.516-.516h23.211l-5.516 33.097H47.064V63.613zm417.356 79.645h16.548v273.581H79.645a7.5 7.5 0 000 15h416.839c.285 0 .516.231.516.516v16.033a.516.516 0 01-.516.516H15.516a.516.516 0 01-.516-.516v-16.033c0-.284.231-.516.516-.516H47.58a7.5 7.5 0 000-15H31.032V143.258h401.324a7.5 7.5 0 000-15H15.516a.516.516 0 01-.516-.516V111.71c0-.285.231-.517.516-.517h480.968c.285 0 .516.231.516.517v16.032a.517.517 0 01-.516.516H464.42a7.5 7.5 0 000 15z"/><path d="M380.456 368.484L269.469 176.248c-2.805-4.858-7.828-7.758-13.437-7.758s-10.633 2.9-13.438 7.758L131.607 368.484c-2.805 4.858-2.805 10.658 0 15.516 2.804 4.858 7.828 7.758 13.437 7.758h221.975c5.609 0 10.633-2.9 13.437-7.758 2.805-4.858 2.805-10.658 0-15.516zm-12.99 8.016c-.149.258-.328.258-.447.258H145.044c-.119 0-.298 0-.447-.258-.149-.258-.059-.413 0-.516l110.987-192.236c.06-.103.149-.258.447-.258.298 0 .387.155.447.258l110.987 192.236c.06.103.15.258.001.516z"/><path d="M278.925 290.925a12.454 12.454 0 00-10.19-5.304h-21.75l16.095-44.262a7.5 7.5 0 00-14.096-5.126l-17.345 47.699c-1.386 3.81-.824 8.066 1.501 11.387s6.134 5.303 10.188 5.303h21.75l-8.644 23.772a7.487 7.487 0 00-5.859-1.623 7.5 7.5 0 00-6.307 8.527l3.294 22.006a7.5 7.5 0 0012.795 4.118l15.511-15.954a7.5 7.5 0 00-.149-10.605 7.461 7.461 0 00-4.909-2.107l9.616-26.444a12.45 12.45 0 00-1.501-11.387z"/></svg>