<svg xmlns="http://www.w3.org/2000/svg" viewBox="0 0 512 512"><path d="M256 85.333c-94.104 0-170.667 76.563-170.667 170.667S161.896 426.667 256 426.667 426.667 350.104 426.667 256 350.104 85.333 256 85.333zm87.313 63.75a10.639 10.639 0 017.5-3.51c2.479-.281 5.667.927 7.75 2.906 22.125 20.948 37.167 47.615 43.458 77.115 1 4.708-1.271 9.5-5.542 11.708-10.438 5.396-22.833 8.01-34.708 8.01-15.479 0-30.146-4.438-38.646-12.938-18.083-18.072-10.542-49.207 20.188-83.291zm-174.625 215.5a10.654 10.654 0 01-7.5 3.521c-.125.01-.271.01-.417.01a10.659 10.659 0 01-7.333-2.917c-22.125-20.948-37.167-47.615-43.458-77.125-1-4.708 1.271-9.5 5.542-11.708 24.042-12.406 58.333-10.094 73.354 4.927 18.062 18.074 10.52 49.209-20.188 83.292zm20.187-132.208c-8.5 8.5-23.167 12.938-38.646 12.938-11.875 0-24.25-2.615-34.708-8.01a10.681 10.681 0 01-5.542-11.708c6.292-29.5 21.333-56.167 43.458-77.115 2.083-1.979 5.146-3.208 7.75-2.906a10.643 10.643 0 017.5 3.51c30.73 34.083 38.271 65.218 20.188 83.291zM301.458 398.24c-14.771 4.708-30.063 7.094-45.458 7.094s-30.688-2.385-45.458-7.094c-4.688-1.5-7.75-6-7.417-10.906C205.792 348.948 228.521 320 256 320s50.208 28.948 52.875 67.333a10.695 10.695 0 01-7.417 10.907zM213.333 256c0-23.531 19.146-42.667 42.667-42.667s42.667 19.135 42.667 42.667-19.146 42.667-42.667 42.667-42.667-19.136-42.667-42.667zm95.542-130.49c-2.667 38.375-25.396 67.323-52.875 67.323s-50.208-28.948-52.875-67.323c-.333-4.906 2.708-9.406 7.396-10.896a149.64 149.64 0 0190.958 0c4.688 1.49 7.729 5.99 7.396 10.896zm93.146 160.865c-6.292 29.51-21.333 56.177-43.458 77.125a10.659 10.659 0 01-7.333 2.917c-.146 0-.292 0-.417-.01a10.643 10.643 0 01-7.5-3.51c-30.729-34.083-38.271-65.229-20.188-83.302 15.021-15.031 49.292-17.313 73.354-4.927a10.68 10.68 0 015.542 11.707z"/><path d="M256 0C114.833 0 0 114.844 0 256s114.833 256 256 256 256-114.844 256-256S397.167 0 256 0zm0 448c-105.875 0-192-86.135-192-192S150.125 64 256 64s192 86.135 192 192-86.125 192-192 192z"/></svg>