<?xml version="1.0" encoding="iso-8859-1"?>
<!-- Generator: Adobe Illustrator 19.0.0, SVG Export Plug-In . SVG Version: 6.00 Build 0)  -->
<svg version="1.1" id="Capa_1" xmlns="http://www.w3.org/2000/svg" xmlns:xlink="http://www.w3.org/1999/xlink" x="0px" y="0px"
	 viewBox="0 0 512 512" style="enable-background:new 0 0 512 512;" xml:space="preserve">
<g>
	<g>
		<path d="M496.484,143.258c8.556,0,15.516-6.96,15.516-15.516V111.71c0-8.556-6.96-15.517-15.516-15.517h-16.548v-32.58
			c0-8.556-6.96-15.516-15.516-15.516H47.581c-8.556,0-15.516,6.96-15.516,15.516v32.581H15.516C6.96,96.193,0,103.154,0,111.71
			v16.032c0,8.556,6.96,15.516,15.516,15.516h0.516v273.581h-0.516C6.96,416.839,0,423.799,0,432.354v16.033
			c0,8.556,6.96,15.516,15.516,15.516h480.968c8.556,0,15.516-6.96,15.516-15.516v-16.033c0-8.556-6.96-15.516-15.516-15.516h-0.516
			v-273.58H496.484z M464.42,63.097c0.284,0,0.516,0.231,0.516,0.516v32.581h-18.211l-5.516-33.097H464.42z M414.66,63.097h11.341
			l5.516,33.097h-22.374L414.66,63.097z M375.726,96.193V63.097h23.728l-5.516,33.097L375.726,96.193L375.726,96.193z
			 M151.274,96.193V63.097h209.451v33.097L151.274,96.193L151.274,96.193z M136.275,63.096v33.097h-18.212l-5.516-33.097H136.275z
			 M85.998,63.097H97.34l5.516,33.097H80.482L85.998,63.097z M47.064,63.613c0-0.285,0.231-0.516,0.516-0.516h23.211l-5.516,33.097
			H47.064V63.613z M464.42,143.258h16.548v273.581H79.645c-4.142,0-7.5,3.357-7.5,7.5c0,4.142,3.358,7.5,7.5,7.5h416.839
			c0.285,0,0.516,0.231,0.516,0.516v16.033c0,0.285-0.231,0.516-0.516,0.516H15.516c-0.285,0-0.516-0.231-0.516-0.516v-16.033
			c0-0.284,0.231-0.516,0.516-0.516H47.58c4.142,0,7.5-3.358,7.5-7.5c0-4.143-3.358-7.5-7.5-7.5H31.032V143.258h401.324
			c4.142,0,7.5-3.357,7.5-7.5c0-4.142-3.358-7.5-7.5-7.5H15.516c-0.285,0-0.516-0.231-0.516-0.516V111.71
			c0-0.285,0.231-0.517,0.516-0.517h480.968c0.285,0,0.516,0.231,0.516,0.517v16.032c0,0.284-0.231,0.516-0.516,0.516H464.42
			c-4.142,0-7.5,3.358-7.5,7.5C456.92,139.901,460.278,143.258,464.42,143.258z"/>
	</g>
</g>
<g>
	<g>
		<path d="M380.456,368.484L269.469,176.248c-2.805-4.858-7.828-7.758-13.437-7.758s-10.633,2.9-13.438,7.758L131.607,368.484
			c-2.805,4.858-2.805,10.658,0,15.516c2.804,4.858,7.828,7.758,13.437,7.758h221.975c5.609,0,10.633-2.9,13.437-7.758
			C383.261,379.142,383.261,373.342,380.456,368.484z M367.466,376.5c-0.149,0.258-0.328,0.258-0.447,0.258H145.044
			c-0.119,0-0.298,0-0.447-0.258c-0.149-0.258-0.059-0.413,0-0.516l110.987-192.236c0.06-0.103,0.149-0.258,0.447-0.258
			c0.298,0,0.387,0.155,0.447,0.258l110.987,192.236C367.525,376.087,367.615,376.242,367.466,376.5z"/>
	</g>
</g>
<g>
	<g>
		<path d="M278.925,290.925c-2.327-3.321-6.136-5.304-10.19-5.304h-21.75l16.095-44.262c1.416-3.893-0.593-8.196-4.485-9.612
			c-3.893-1.415-8.195,0.593-9.611,4.486l-17.345,47.699c-1.386,3.81-0.824,8.066,1.501,11.387s6.134,5.303,10.188,5.303h21.75
			l-8.644,23.772c-1.581-1.293-3.676-1.947-5.859-1.623c-4.096,0.613-6.92,4.431-6.307,8.527l3.294,22.006
			c0.422,2.819,2.406,5.156,5.12,6.029c0.754,0.243,1.529,0.361,2.297,0.361c1.994,0,3.944-0.796,5.378-2.272l15.511-15.954
			c2.887-2.97,2.82-7.718-0.149-10.605c-1.375-1.337-3.132-2.032-4.909-2.107l9.616-26.444
			C281.812,298.502,281.25,294.246,278.925,290.925z"/>
	</g>
</g>
<g>
</g>
<g>
</g>
<g>
</g>
<g>
</g>
<g>
</g>
<g>
</g>
<g>
</g>
<g>
</g>
<g>
</g>
<g>
</g>
<g>
</g>
<g>
</g>
<g>
</g>
<g>
</g>
<g>
</g>
</svg>
