<svg id="Layer_1" enable-background="new 0 0 512 512" height="512" viewBox="0 0 512 512" width="512" xmlns="http://www.w3.org/2000/svg"><g><path d="m65.424 250.644c0 16.919 13.779 30.684 30.716 30.684 16.921 0 30.688-13.765 30.688-30.684 0-16.92-13.767-30.685-30.688-30.685-16.937.001-30.716 13.765-30.716 30.685zm30.716-15.684c8.65 0 15.688 7.036 15.688 15.685s-7.037 15.684-15.688 15.684c-8.666 0-15.716-7.035-15.716-15.684s7.05-15.685 15.716-15.685z"/><path d="m246.818 250.644c0-16.92-13.767-30.685-30.688-30.685s-30.688 13.765-30.688 30.685c0 16.919 13.767 30.684 30.688 30.684s30.688-13.765 30.688-30.684zm-46.375 0c0-8.648 7.037-15.685 15.688-15.685s15.688 7.036 15.688 15.685-7.037 15.684-15.688 15.684-15.688-7.035-15.688-15.684z"/><path d="m326.841 250.644c0-16.92-13.779-30.685-30.716-30.685-16.921 0-30.688 13.765-30.688 30.685 0 16.919 13.767 30.684 30.688 30.684 16.937 0 30.716-13.765 30.716-30.684zm-46.403 0c0-8.648 7.037-15.685 15.688-15.685 8.666 0 15.716 7.036 15.716 15.685s-7.05 15.684-15.716 15.684c-8.651 0-15.688-7.035-15.688-15.684z"/><path d="m430.601 258.144c4.143 0 7.5-3.357 7.5-7.5s-3.357-7.5-7.5-7.5h-59.925c-4.143 0-7.5 3.357-7.5 7.5s3.357 7.5 7.5 7.5z"/><path d="m255.929 127.902c-4.143 0-7.5 3.357-7.5 7.5s3.357 7.5 7.5 7.5h.143c4.143 0 7.5-3.357 7.5-7.5s-3.357-7.5-7.5-7.5z"/><path d="m287.706 111.895c1.919 0 3.84-.732 5.304-2.197 2.929-2.929 2.929-7.678-.001-10.606-20.414-20.412-53.632-20.411-74.046 0-2.93 2.929-2.93 7.678-.001 10.606 2.93 2.93 7.679 2.929 10.606.001 14.566-14.563 38.269-14.564 52.835 0 1.465 1.465 3.384 2.196 5.303 2.196z"/><path d="m178.941 59.873c42.477-42.471 111.613-42.471 154.119.002 1.464 1.463 3.382 2.194 5.301 2.194 1.92 0 3.841-.733 5.306-2.199 2.928-2.93 2.926-7.679-.005-10.606-48.351-48.315-127.004-48.315-175.326.001-2.93 2.929-2.93 7.678-.001 10.606 2.929 2.93 7.678 2.929 10.606.002z"/><path d="m314.213 82.347c2.929-2.929 2.929-7.678-.001-10.606-31.637-31.633-83.114-31.633-114.751 0-2.93 2.929-2.93 7.678-.001 10.606 1.465 1.465 3.384 2.197 5.304 2.197 1.919 0 3.839-.732 5.303-2.196 25.789-25.785 67.751-25.785 93.54 0 2.929 2.93 7.678 2.929 10.606-.001z"/><path d="m496.279 173.307h-381.657c-4.143 0-7.5 3.357-7.5 7.5s3.357 7.5 7.5 7.5h381.657c.363 0 .721.356.721.72v126.578c0 .363-.357.72-.721.72h-480.558c-.377 0-.721-.343-.721-.72v-126.578c0-.377.344-.72.721-.72h64.29c4.143 0 7.5-3.357 7.5-7.5s-3.357-7.5-7.5-7.5h-64.29c-8.668 0-15.721 7.052-15.721 15.72v126.578c0 8.668 7.053 15.72 15.721 15.72h206.8v46.121c-28.786 3.695-51.109 28.335-51.109 58.106v1.513h-17.303c-11.389 0-20.653 9.276-20.653 20.68v20.576c0 11.387 9.265 20.651 20.653 20.651h85.89c4.143 0 7.5-3.357 7.5-7.5s-3.357-7.5-7.5-7.5h-85.89c-3.064 0-5.653-2.588-5.653-5.651v-20.576c0-3.132 2.536-5.68 5.653-5.68h203.755c3.133 0 5.682 2.548 5.682 5.68v20.576c0 3.116-2.549 5.651-5.682 5.651h-83.226c-4.143 0-7.5 3.357-7.5 7.5s3.357 7.5 7.5 7.5h83.226c11.404 0 20.682-9.265 20.682-20.651v-20.576c0-11.403-9.277-20.68-20.682-20.68h-17.274v-1.513c0-29.773-22.336-54.413-51.138-58.107v-46.121h206.828c8.668 0 15.721-7.052 15.721-15.72v-126.577c-.001-8.668-7.054-15.72-15.722-15.72zm-258.758 158.018h36.931v45.625h-36.931zm88.068 104.227v1.513h-139.178v-1.513c0-24.043 19.563-43.603 43.609-43.603h51.931c24.062.001 43.638 19.56 43.638 43.603z"/></g></svg>