<svg id="Capa_1" enable-background="new 0 0 507 507" height="512" viewBox="0 0 507 507" width="512" xmlns="http://www.w3.org/2000/svg"><path id="XMLID_1002_" d="m30.01 0v507h446.98v-507zm416.98 477h-386.98v-447h386.98z"/><path id="XMLID_1021_" d="m417.335 58.021h-327.67v390.812h327.671v-390.812zm-297.67 30h267.671v90.271h-267.671zm0 120.271h267.671v90.271h-267.671zm267.67 210.541h-267.67v-90.271h267.671v90.271z"/><path id="XMLID_1025_" d="m345.315 118.156h-.277c-8.284 0-15 6.716-15 15s6.716 15 15 15h.277c8.284 0 15-6.716 15-15s-6.716-15-15-15z"/><path id="XMLID_1026_" d="m294.251 118.156h-.278c-8.284 0-15 6.716-15 15s6.716 15 15 15h.278c8.284 0 15-6.716 15-15s-6.715-15-15-15z"/><path id="XMLID_1027_" d="m243.188 118.156h-.278c-8.284 0-15 6.716-15 15s6.716 15 15 15h.278c8.285 0 15-6.716 15-15s-6.716-15-15-15z"/><path id="XMLID_1029_" d="m345.315 238.5h-.277c-8.284 0-15 6.716-15 15s6.716 15 15 15h.277c8.284 0 15-6.716 15-15s-6.716-15-15-15z"/><path id="XMLID_1030_" d="m294.251 238.5h-.278c-8.284 0-15 6.716-15 15s6.716 15 15 15h.278c8.284 0 15-6.716 15-15s-6.715-15-15-15z"/><path id="XMLID_1031_" d="m243.188 238.5h-.278c-8.284 0-15 6.716-15 15s6.716 15 15 15h.278c8.285 0 15-6.716 15-15s-6.716-15-15-15z"/><path id="XMLID_1032_" d="m345.038 388.844h.277c8.284 0 15-6.716 15-15s-6.716-15-15-15h-.277c-8.284 0-15 6.716-15 15s6.715 15 15 15z"/><path id="XMLID_1033_" d="m293.973 388.844h.278c8.284 0 15-6.716 15-15s-6.716-15-15-15h-.278c-8.284 0-15 6.716-15 15s6.716 15 15 15z"/><path id="XMLID_1034_" d="m242.91 388.844h.278c8.285 0 15-6.716 15-15s-6.715-15-15-15h-.278c-8.284 0-15 6.716-15 15s6.715 15 15 15z"/><path id="XMLID_1035_" d="m149.91 118.156h43.5v30h-43.5z"/><path id="XMLID_1036_" d="m149.91 238.5h43.5v30h-43.5z"/><path id="XMLID_1037_" d="m149.91 358.844h43.5v30h-43.5z"/></svg>