<svg xmlns="http://www.w3.org/2000/svg" xmlns:xlink="http://www.w3.org/1999/xlink"><symbol id="icon-accumulator" viewBox="0 0 512 512"><path d="M496.484 143.258c8.556 0 15.516-6.96 15.516-15.516V111.71c0-8.556-6.96-15.517-15.516-15.517h-16.548v-32.58c0-8.556-6.96-15.516-15.516-15.516H47.581c-8.556 0-15.516 6.96-15.516 15.516v32.581H15.516C6.96 96.193 0 103.154 0 111.71v16.032c0 8.556 6.96 15.516 15.516 15.516h.516v273.581h-.516C6.96 416.839 0 423.799 0 432.354v16.033c0 8.556 6.96 15.516 15.516 15.516h480.968c8.556 0 15.516-6.96 15.516-15.516v-16.033c0-8.556-6.96-15.516-15.516-15.516h-.516v-273.58h.516zM464.42 63.097c.284 0 .516.231.516.516v32.581h-18.211l-5.516-33.097h23.211zm-49.76 0h11.341l5.516 33.097h-22.374l5.517-33.097zm-38.934 33.096V63.097h23.728l-5.516 33.097-18.212-.001zm-224.452 0V63.097h209.451v33.097l-209.451-.001zm-14.999-33.097v33.097h-18.212l-5.516-33.097h23.728zm-50.277.001H97.34l5.516 33.097H80.482l5.516-33.097zm-38.934.516c0-.285.231-.516.516-.516h23.211l-5.516 33.097H47.064V63.613zm417.356 79.645h16.548v273.581H79.645a7.5 7.5 0 000 15h416.839c.285 0 .516.231.516.516v16.033a.516.516 0 01-.516.516H15.516a.516.516 0 01-.516-.516v-16.033c0-.284.231-.516.516-.516H47.58a7.5 7.5 0 000-15H31.032V143.258h401.324a7.5 7.5 0 000-15H15.516a.516.516 0 01-.516-.516V111.71c0-.285.231-.517.516-.517h480.968c.285 0 .516.231.516.517v16.032a.517.517 0 01-.516.516H464.42a7.5 7.5 0 000 15z"/><path d="M380.456 368.484L269.469 176.248c-2.805-4.858-7.828-7.758-13.437-7.758s-10.633 2.9-13.438 7.758L131.607 368.484c-2.805 4.858-2.805 10.658 0 15.516 2.804 4.858 7.828 7.758 13.437 7.758h221.975c5.609 0 10.633-2.9 13.437-7.758 2.805-4.858 2.805-10.658 0-15.516zm-12.99 8.016c-.149.258-.328.258-.447.258H145.044c-.119 0-.298 0-.447-.258-.149-.258-.059-.413 0-.516l110.987-192.236c.06-.103.149-.258.447-.258.298 0 .387.155.447.258l110.987 192.236c.06.103.15.258.001.516z"/><path d="M278.925 290.925a12.454 12.454 0 00-10.19-5.304h-21.75l16.095-44.262a7.5 7.5 0 00-14.096-5.126l-17.345 47.699c-1.386 3.81-.824 8.066 1.501 11.387s6.134 5.303 10.188 5.303h21.75l-8.644 23.772a7.487 7.487 0 00-5.859-1.623 7.5 7.5 0 00-6.307 8.527l3.294 22.006a7.5 7.5 0 0012.795 4.118l15.511-15.954a7.5 7.5 0 00-.149-10.605 7.461 7.461 0 00-4.909-2.107l9.616-26.444a12.45 12.45 0 00-1.501-11.387z"/></symbol><symbol id="icon-body" viewBox="0 0 507 507"><path d="M30.01 0v507h446.98V0zm416.98 477H60.01V30h386.98z"/><path d="M417.335 58.021H89.665v390.812h327.671V58.021zm-297.67 30h267.671v90.271H119.665zm0 120.271h267.671v90.271H119.665zm267.67 210.541h-267.67v-90.271h267.671v90.271z"/><path d="M345.315 118.156h-.277c-8.284 0-15 6.716-15 15s6.716 15 15 15h.277c8.284 0 15-6.716 15-15s-6.716-15-15-15zm-51.064 0h-.278c-8.284 0-15 6.716-15 15s6.716 15 15 15h.278c8.284 0 15-6.716 15-15s-6.715-15-15-15zm-51.063 0h-.278c-8.284 0-15 6.716-15 15s6.716 15 15 15h.278c8.285 0 15-6.716 15-15s-6.716-15-15-15zM345.315 238.5h-.277c-8.284 0-15 6.716-15 15s6.716 15 15 15h.277c8.284 0 15-6.716 15-15s-6.716-15-15-15zm-51.064 0h-.278c-8.284 0-15 6.716-15 15s6.716 15 15 15h.278c8.284 0 15-6.716 15-15s-6.715-15-15-15zm-51.063 0h-.278c-8.284 0-15 6.716-15 15s6.716 15 15 15h.278c8.285 0 15-6.716 15-15s-6.716-15-15-15zm101.85 150.344h.277c8.284 0 15-6.716 15-15s-6.716-15-15-15h-.277c-8.284 0-15 6.716-15 15s6.715 15 15 15zm-51.065 0h.278c8.284 0 15-6.716 15-15s-6.716-15-15-15h-.278c-8.284 0-15 6.716-15 15s6.716 15 15 15zm-51.063 0h.278c8.285 0 15-6.716 15-15s-6.715-15-15-15h-.278c-8.284 0-15 6.716-15 15s6.715 15 15 15zm-93-270.688h43.5v30h-43.5zm0 120.344h43.5v30h-43.5zm0 120.344h43.5v30h-43.5z"/></symbol><symbol id="icon-close-menu" viewBox="0 0 365.696 365.696"><path d="M243.188 182.86L356.32 69.726c12.5-12.5 12.5-32.766 0-45.247L341.238 9.398c-12.504-12.503-32.77-12.503-45.25 0L182.86 122.528 69.727 9.374c-12.5-12.5-32.766-12.5-45.247 0L9.375 24.457c-12.5 12.504-12.5 32.77 0 45.25l113.152 113.152L9.398 295.99c-12.503 12.503-12.503 32.769 0 45.25l15.082 15.08c12.5 12.5 32.766 12.5 45.247 0l113.132-113.132L295.99 356.32c12.503 12.5 32.769 12.5 45.25 0l15.081-15.082c12.5-12.504 12.5-32.77 0-45.25zm0 0"/></symbol><symbol id="icon-engine" viewBox="0 0 512 512"><path d="M284.069 73.93A10.072 10.072 0 00277 71c-2.641 0-5.21 1.07-7.07 2.93-1.86 1.86-2.93 4.44-2.93 7.07s1.069 5.21 2.93 7.07c1.861 1.86 4.44 2.93 7.07 2.93s5.21-1.07 7.069-2.93C285.93 86.21 287 83.63 287 81s-1.07-5.21-2.931-7.07z"/><path d="M502 225.127c-5.522 0-10 4.477-10 10V295h-34v-85.013c0-2.652-1.054-5.196-2.929-7.071l-30.986-30.987a10.003 10.003 0 00-7.071-2.929H326v-30h55c18.748 0 34-15.252 34-34s-15.252-34-34-34h-56c-5.522 0-10 4.477-10 10s4.478 10 10 10h56c7.72 0 14 6.28 14 14s-6.28 14-14 14H171c-7.72 0-14-6.28-14-14s6.28-14 14-14h60.5c5.522 0 10-4.477 10-10s-4.478-10-10-10H171c-18.748 0-34 15.252-34 34s15.252 34 34 34h55v30h-45.333a10.003 10.003 0 00-7.071 2.929l-29.404 29.405H104c-5.522 0-10 4.477-10 10V255H74c-5.522 0-10 4.477-10 10v30H52v-71.467c0-14.336-11.663-26-26-26s-26 11.664-26 26V387.66c0 14.336 11.663 26 26 26s26-11.664 26-26V315h12v30c0 5.523 4.478 10 10 10h20v21.789c0 2.652 1.054 5.196 2.929 7.071l54.212 54.211a10.003 10.003 0 007.071 2.929H354.5c2.652 0 5.195-1.054 7.071-2.929l18.571-18.571H448c5.522 0 10-4.477 10-10V315h34v60.127c0 5.523 4.478 10 10 10s10-4.477 10-10v-140c0-5.523-4.478-10-10-10zM32 304.749c-.002.084-.002.418 0 .503v82.408c0 3.308-2.691 6-6 6s-6-2.691-6-6V223.533c0-3.309 2.691-6 6-6s6 2.691 6 6v81.216zM94 335H84v-60h10v60zm152-196h60v30h-60v-30zm192 260.5h-62a10.003 10.003 0 00-7.071 2.929L350.357 421H162.354L114 372.646V221.333h34.333c2.652 0 5.195-1.054 7.071-2.929L184.81 189h228.062L438 214.129V399.5z"/><path d="M335.069 379.93C333.21 378.07 330.63 377 328 377s-5.21 1.07-7.07 2.93c-1.86 1.86-2.93 4.44-2.93 7.07s1.069 5.21 2.93 7.07c1.861 1.86 4.44 2.93 7.07 2.93s5.21-1.07 7.069-2.93c1.86-1.86 2.931-4.44 2.931-7.07s-1.07-5.21-2.931-7.07zM287.333 377h-92.392l-42.283-42.283c-3.906-3.905-10.236-3.905-14.143 0-3.905 3.905-3.905 10.237 0 14.142l45.212 45.211a10.003 10.003 0 007.071 2.929h96.534c5.522 0 10-4.477 10-10S292.855 377 287.333 377z"/></symbol><symbol id="icon-giroskop"><path d="M65.424 250.644c0 16.919 13.779 30.684 30.716 30.684 16.921 0 30.688-13.765 30.688-30.684 0-16.92-13.767-30.685-30.688-30.685-16.937.001-30.716 13.765-30.716 30.685zM96.14 234.96c8.65 0 15.688 7.036 15.688 15.685s-7.037 15.684-15.688 15.684c-8.666 0-15.716-7.035-15.716-15.684s7.05-15.685 15.716-15.685zm150.678 15.684c0-16.92-13.767-30.685-30.688-30.685s-30.688 13.765-30.688 30.685c0 16.919 13.767 30.684 30.688 30.684s30.688-13.765 30.688-30.684zm-46.375 0c0-8.648 7.037-15.685 15.688-15.685s15.688 7.036 15.688 15.685-7.037 15.684-15.688 15.684-15.688-7.035-15.688-15.684zm126.398 0c0-16.92-13.779-30.685-30.716-30.685-16.921 0-30.688 13.765-30.688 30.685 0 16.919 13.767 30.684 30.688 30.684 16.937 0 30.716-13.765 30.716-30.684zm-46.403 0c0-8.648 7.037-15.685 15.688-15.685 8.666 0 15.716 7.036 15.716 15.685s-7.05 15.684-15.716 15.684c-8.651 0-15.688-7.035-15.688-15.684zm150.163 7.5c4.143 0 7.5-3.357 7.5-7.5s-3.357-7.5-7.5-7.5h-59.925c-4.143 0-7.5 3.357-7.5 7.5s3.357 7.5 7.5 7.5zM255.929 127.902c-4.143 0-7.5 3.357-7.5 7.5s3.357 7.5 7.5 7.5h.143c4.143 0 7.5-3.357 7.5-7.5s-3.357-7.5-7.5-7.5zm31.777-16.007c1.919 0 3.84-.732 5.304-2.197a7.498 7.498 0 00-.001-10.606c-20.414-20.412-53.632-20.411-74.046 0a7.498 7.498 0 00-.001 10.606 7.5 7.5 0 0010.606.001c14.566-14.563 38.269-14.564 52.835 0a7.474 7.474 0 005.303 2.196zM178.941 59.873c42.477-42.471 111.613-42.471 154.119.002a7.475 7.475 0 005.301 2.194 7.498 7.498 0 005.301-12.805C295.311.949 216.658.949 168.336 49.265a7.498 7.498 0 00-.001 10.606 7.5 7.5 0 0010.606.002z"/><path d="M314.213 82.347a7.498 7.498 0 00-.001-10.606c-31.637-31.633-83.114-31.633-114.751 0a7.498 7.498 0 00-.001 10.606 7.476 7.476 0 005.304 2.197 7.477 7.477 0 005.303-2.196c25.789-25.785 67.751-25.785 93.54 0a7.497 7.497 0 0010.606-.001zm182.066 90.96H114.622c-4.143 0-7.5 3.357-7.5 7.5s3.357 7.5 7.5 7.5h381.657c.363 0 .721.356.721.72v126.578c0 .363-.357.72-.721.72H15.721a.75.75 0 01-.721-.72V189.027a.75.75 0 01.721-.72h64.29c4.143 0 7.5-3.357 7.5-7.5s-3.357-7.5-7.5-7.5h-64.29C7.053 173.307 0 180.359 0 189.027v126.578c0 8.668 7.053 15.72 15.721 15.72h206.8v46.121c-28.786 3.695-51.109 28.335-51.109 58.106v1.513h-17.303c-11.389 0-20.653 9.276-20.653 20.68v20.576c0 11.387 9.265 20.651 20.653 20.651h85.89c4.143 0 7.5-3.357 7.5-7.5s-3.357-7.5-7.5-7.5h-85.89c-3.064 0-5.653-2.588-5.653-5.651v-20.576c0-3.132 2.536-5.68 5.653-5.68h203.755a5.687 5.687 0 015.682 5.68v20.576c0 3.116-2.549 5.651-5.682 5.651h-83.226c-4.143 0-7.5 3.357-7.5 7.5s3.357 7.5 7.5 7.5h83.226c11.404 0 20.682-9.265 20.682-20.651v-20.576c0-11.403-9.277-20.68-20.682-20.68H340.59v-1.513c0-29.773-22.336-54.413-51.138-58.107v-46.121H496.28c8.668 0 15.721-7.052 15.721-15.72V189.027c-.001-8.668-7.054-15.72-15.722-15.72zM237.521 331.325h36.931v45.625h-36.931zm88.068 104.227v1.513H186.411v-1.513c0-24.043 19.563-43.603 43.609-43.603h51.931c24.062.001 43.638 19.56 43.638 43.603z"/></symbol><symbol id="icon-open-menu"><path d="M464.883 64.267H47.117C21.137 64.267 0 85.403 0 111.416c0 25.98 21.137 47.117 47.117 47.117h417.766c25.98 0 47.117-21.137 47.117-47.117 0-26.013-21.137-47.149-47.117-47.149zm0 144.6H47.117C21.137 208.867 0 230.003 0 256.016c0 25.98 21.137 47.117 47.117 47.117h417.766c25.98 0 47.117-21.137 47.117-47.117 0-26.013-21.137-47.149-47.117-47.149zm0 144.6H47.117C21.137 353.467 0 374.604 0 400.616c0 25.98 21.137 47.117 47.117 47.117h417.766c25.98 0 47.117-21.137 47.117-47.117 0-26.012-21.137-47.149-47.117-47.149z"/></symbol><symbol id="icon-weight"><path d="M488.705 27.326C472.239 9.705 449.893 0 425.784 0H86.205C36.962 0-3.072 42.923.261 92.034l15.028 221.474c.654 9.647 15.62 8.636 14.966-1.016L15.227 91.019C12.473 50.449 45.541 15 86.205 15h339.579c40.664 0 73.731 35.449 70.978 76.019l-23.044 339.61C471.193 467.846 440.015 497 402.74 497H109.25c-37.276 0-68.453-29.154-70.979-66.372l-5.234-77.136c-.656-9.649-15.62-8.635-14.966 1.016l5.234 77.136C26.363 476.704 64.114 512 109.249 512h293.49c45.136 0 82.887-35.296 85.944-80.356l23.044-339.61c1.636-24.091-6.541-47.071-23.022-64.708z"/><path d="M331.494 174.5a7.5 7.5 0 007.5 7.5h30a7.5 7.5 0 007.5-7.5c0-66.444-54.056-120.5-120.5-120.5s-120.5 54.056-120.5 120.5a7.5 7.5 0 007.5 7.5h155c9.673 0 9.673-15 0-15h-36.327l-32.632-58.169c-4.732-8.436-17.814-1.097-13.082 7.339L244.468 167h-93.71c1.624-23.02 10.668-44.024 24.747-60.631l10.294 10.293c6.838 6.841 17.447-3.767 10.606-10.606L185.99 95.64a105.593 105.593 0 0134.473-20.477l3.744 13.971c2.495 9.311 16.994 5.466 14.489-3.883l-3.786-14.128a105.993 105.993 0 0140.017-.414l-3.695 13.788c-2.504 9.349 11.994 13.194 14.489 3.883l3.734-13.934a105.476 105.476 0 0134.742 19.629l-9.921 9.921c-6.84 6.839 3.767 17.446 10.606 10.606l10.036-10.036c14.972 16.878 24.628 38.573 26.312 62.434h-22.236a7.5 7.5 0 00-7.5 7.5zM75.494 48c-14.612 0-26.5 11.888-26.5 26.5s11.888 26.5 26.5 26.5 26.5-11.888 26.5-26.5S90.107 48 75.494 48zm0 38c-6.341 0-11.5-5.159-11.5-11.5S69.153 63 75.494 63s11.5 5.159 11.5 11.5S81.836 86 75.494 86zm361 15c14.612 0 26.5-11.888 26.5-26.5S451.107 48 436.494 48s-26.5 11.888-26.5 26.5 11.888 26.5 26.5 26.5zm0-38c6.341 0 11.5 5.159 11.5 11.5s-5.159 11.5-11.5 11.5-11.5-5.159-11.5-11.5 5.159-11.5 11.5-11.5zm-364.5 370.5c0 14.612 11.888 26.5 26.5 26.5s26.5-11.888 26.5-26.5-11.888-26.5-26.5-26.5-26.5 11.888-26.5 26.5zm26.5-11.5c6.341 0 11.5 5.159 11.5 11.5s-5.159 11.5-11.5 11.5-11.5-5.159-11.5-11.5 5.159-11.5 11.5-11.5zm288.5 11.5c0 14.612 11.888 26.5 26.5 26.5s26.5-11.888 26.5-26.5-11.888-26.5-26.5-26.5-26.5 11.888-26.5 26.5zm26.5-11.5c6.341 0 11.5 5.159 11.5 11.5s-5.159 11.5-11.5 11.5-11.5-5.159-11.5-11.5 5.159-11.5 11.5-11.5z"/></symbol><symbol id="icon-wheel" viewBox="0 0 512 512"><path d="M256 85.333c-94.104 0-170.667 76.563-170.667 170.667S161.896 426.667 256 426.667 426.667 350.104 426.667 256 350.104 85.333 256 85.333zm87.313 63.75a10.639 10.639 0 017.5-3.51c2.479-.281 5.667.927 7.75 2.906 22.125 20.948 37.167 47.615 43.458 77.115 1 4.708-1.271 9.5-5.542 11.708-10.438 5.396-22.833 8.01-34.708 8.01-15.479 0-30.146-4.438-38.646-12.938-18.083-18.072-10.542-49.207 20.188-83.291zm-174.625 215.5a10.654 10.654 0 01-7.5 3.521c-.125.01-.271.01-.417.01a10.659 10.659 0 01-7.333-2.917c-22.125-20.948-37.167-47.615-43.458-77.125-1-4.708 1.271-9.5 5.542-11.708 24.042-12.406 58.333-10.094 73.354 4.927 18.062 18.074 10.52 49.209-20.188 83.292zm20.187-132.208c-8.5 8.5-23.167 12.938-38.646 12.938-11.875 0-24.25-2.615-34.708-8.01a10.681 10.681 0 01-5.542-11.708c6.292-29.5 21.333-56.167 43.458-77.115 2.083-1.979 5.146-3.208 7.75-2.906a10.643 10.643 0 017.5 3.51c30.73 34.083 38.271 65.218 20.188 83.291zM301.458 398.24c-14.771 4.708-30.063 7.094-45.458 7.094s-30.688-2.385-45.458-7.094c-4.688-1.5-7.75-6-7.417-10.906C205.792 348.948 228.521 320 256 320s50.208 28.948 52.875 67.333a10.695 10.695 0 01-7.417 10.907zM213.333 256c0-23.531 19.146-42.667 42.667-42.667s42.667 19.135 42.667 42.667-19.146 42.667-42.667 42.667-42.667-19.136-42.667-42.667zm95.542-130.49c-2.667 38.375-25.396 67.323-52.875 67.323s-50.208-28.948-52.875-67.323c-.333-4.906 2.708-9.406 7.396-10.896a149.64 149.64 0 0190.958 0c4.688 1.49 7.729 5.99 7.396 10.896zm93.146 160.865c-6.292 29.51-21.333 56.177-43.458 77.125a10.659 10.659 0 01-7.333 2.917c-.146 0-.292 0-.417-.01a10.643 10.643 0 01-7.5-3.51c-30.729-34.083-38.271-65.229-20.188-83.302 15.021-15.031 49.292-17.313 73.354-4.927a10.68 10.68 0 015.542 11.707z"/><path d="M256 0C114.833 0 0 114.844 0 256s114.833 256 256 256 256-114.844 256-256S397.167 0 256 0zm0 448c-105.875 0-192-86.135-192-192S150.125 64 256 64s192 86.135 192 192-86.125 192-192 192z"/></symbol></svg>